# File created by Blade
# Date/Time:  Wed Jan 21 15:15:22 2015
# Frame Rate: 120.000 fps
#------------------------------------------------------
:FULLY-SPECIFIED
:DEGREES
669
root 17.457609 35.917478 -19.141229 154.378109 -81.676449 -118.404405
Spine -33.261266 -9.747944 0.583071
Head -0.230302 7.977501 13.182972
LeftShoulder -14.219800 -22.898691 3.011651
LeftArm -10.400532 9.004636 -57.884694
LeftForeArm 2.459987 -0.000000 4.362045
LeftHand -1.009473 0.000000 -4.525003
LeftHandThumb1 -26.253704 0.000000 33.147579
RightShoulder -21.428623 -24.773973 3.969992
RightArm -12.766275 6.650451 67.423347
RightForeArm -40.401341 0.000000 8.799802
RightHand -4.830775 -0.000000 25.819674
RightHandThumb1 -24.326973 -0.000000 -32.862282
LeftUpLeg -29.117874 1.236305 -3.397031
LeftLeg -6.765784 -0.000000 0.000000
LeftFoot -18.434114 29.560936 -7.429512
LeftToeBase 21.255579 -0.000000 -0.000000
RightUpLeg 7.397682 0.835290 -3.690786
RightLeg 130.469896 -0.000000 -0.000000
RightFoot 9.762986 -39.664169 -3.699896
RightToeBase 22.490074 -0.000000 -0.000000
670
root 17.466367 35.920911 -19.144584 155.430753 -81.540793 -119.271562
Spine -33.259104 -9.811497 0.603480
Head -0.355918 8.186342 13.284877
LeftShoulder -14.243919 -22.894651 3.049916
LeftArm -10.340779 8.907618 -57.869068
LeftForeArm 2.592737 0.000000 4.380855
LeftHand -1.062356 -0.000000 -4.469367
LeftHandThumb1 -26.253704 0.000000 33.147579
RightShoulder -21.434801 -24.709051 3.971367
RightArm -12.784990 6.619885 67.354565
RightForeArm -40.397848 -0.000000 8.836043
RightHand -4.784264 -0.000000 25.863152
RightHandThumb1 -24.326973 -0.000000 -32.862282
LeftUpLeg -29.316164 1.328971 -3.413348
LeftLeg -6.767598 -0.000000 0.000000
LeftFoot -18.441050 29.658701 -7.423614
LeftToeBase 21.221362 -0.000000 -0.000000
RightUpLeg 7.378231 0.810962 -3.735514
RightLeg 130.458154 -0.000000 -0.000000
RightFoot 9.664514 -39.693140 -3.597598
RightToeBase 22.521270 -0.000000 -0.000000
671
root 17.475804 35.924056 -19.149122 156.231765 -81.427562 -119.904645
Spine -33.228341 -9.894507 0.624781
Head -0.489348 8.366328 13.369089
LeftShoulder -14.197872 -22.911601 3.043085
LeftArm -10.311320 9.129413 -57.870974
LeftForeArm 2.371634 -0.000000 4.384772
LeftHand -1.098170 -0.000000 -4.376128
LeftHandThumb1 -26.253704 0.000000 33.147579
RightShoulder -21.463523 -24.729089 3.996110
RightArm -12.731880 6.700635 67.312221
RightForeArm -40.601738 0.000000 8.904956
RightHand -4.817600 0.000000 25.818077
RightHandThumb1 -24.326973 -0.000000 -32.862282
LeftUpLeg -29.498172 1.368979 -3.395525
LeftLeg -6.766955 -0.000000 0.000000
LeftFoot -18.426597 29.769622 -7.394904
LeftToeBase 21.150763 -0.000000 -0.000000
RightUpLeg 7.395709 0.756725 -3.744510
RightLeg 130.408133 -0.000000 -0.000000
RightFoot 9.870731 -39.717956 -3.803237
RightToeBase 22.485198 -0.000000 -0.000000
672
root 17.488830 35.930813 -19.154555 157.071583 -81.263260 -120.518358
Spine -33.260874 -9.941452 0.672461
Head -0.585459 8.607444 13.472607
LeftShoulder -14.208986 -22.886448 3.078095
LeftArm -10.166535 8.737046 -57.804091
LeftForeArm 2.845241 -0.000000 4.290974
LeftHand -1.089907 -0.000000 -4.364816
LeftHandThumb1 -26.253704 0.000000 33.147579
RightShoulder -21.535637 -24.816179 4.036140
RightArm -12.532362 6.591165 67.298385
RightForeArm -40.571203 -0.000000 8.843037
RightHand -4.752222 0.000000 25.732881
RightHandThumb1 -24.326973 -0.000000 -32.862282
LeftUpLeg -29.745093 1.470628 -3.365692
LeftLeg -6.763029 -0.000000 0.000000
LeftFoot -18.397284 29.869485 -7.368247
LeftToeBase 21.038313 -0.000000 -0.000000
RightUpLeg 7.346371 0.761790 -3.729833
RightLeg 130.394516 -0.000000 -0.000000
RightFoot 9.900972 -39.659633 -3.899150
RightToeBase 22.603631 -0.000000 -0.000000
673
root 17.503405 35.936030 -19.159096 158.024262 -81.096824 -121.288237
Spine -33.220083 -9.986279 0.674461
Head -0.731827 8.813292 13.595452
LeftShoulder -14.173551 -22.910967 3.107947
LeftArm -10.097451 8.537399 -57.748635
LeftForeArm 3.126600 -0.000000 4.239908
LeftHand -1.100993 -0.000000 -4.473508
LeftHandThumb1 -26.253704 0.000000 33.147579
RightShoulder -21.539738 -24.775118 4.040694
RightArm -12.520394 6.674731 67.241450
RightForeArm -40.674466 -0.000000 8.868708
RightHand -4.752629 -0.000000 25.756336
RightHandThumb1 -24.326973 -0.000000 -32.862282
LeftUpLeg -29.939357 1.576560 -3.360117
LeftLeg -6.779679 -0.000000 0.000000
LeftFoot -18.408742 29.973317 -7.362755
LeftToeBase 21.077915 -0.000000 -0.000000
RightUpLeg 7.358642 0.812632 -3.738956
RightLeg 130.382623 -0.000000 -0.000000
RightFoot 9.835389 -39.604621 -3.757616
RightToeBase 22.613940 -0.000000 -0.000000
674
root 17.518071 35.940092 -19.161188 158.895872 -80.911802 -122.009483
Spine -33.134548 -10.026737 0.693413
Head -0.884569 9.009988 13.677975
LeftShoulder -14.148914 -22.940202 3.099239
LeftArm -10.032278 8.734909 -57.726685
LeftForeArm 2.901501 -0.000000 4.209454
LeftHand -0.938487 -0.000000 -4.517675
LeftHandThumb1 -26.253704 0.000000 33.147579
RightShoulder -21.531751 -24.779736 4.046399
RightArm -12.445081 6.765940 67.193581
RightForeArm -40.963137 -0.000000 8.922064
RightHand -4.758110 -0.000000 25.713609
RightHandThumb1 -24.326973 -0.000000 -32.862282
LeftUpLeg -30.103592 1.719712 -3.362272
LeftLeg -6.798254 -0.000000 0.000000
LeftFoot -18.386652 30.057117 -7.293635
LeftToeBase 21.057146 -0.000000 -0.000000
RightUpLeg 7.409101 0.847418 -3.766854
RightLeg 130.362991 -0.000000 -0.000000
RightFoot 9.901953 -39.659222 -3.860678
RightToeBase 22.733600 -0.000000 -0.000000
675
root 17.533675 35.947728 -19.167232 160.056226 -80.671745 -122.940008
Spine -33.158899 -10.003788 0.683391
Head -0.969335 9.263706 13.814290
LeftShoulder -14.129932 -22.914922 3.126074
LeftArm -9.941794 8.860179 -57.696929
LeftForeArm 2.994122 0.000000 4.234311
LeftHand -1.051643 -0.000000 -4.344579
LeftHandThumb1 -26.253704 0.000000 33.147579
RightShoulder -21.533746 -24.769513 4.052352
RightArm -12.420174 6.818753 67.125523
RightForeArm -41.097505 -0.000000 8.932703
RightHand -4.670434 -0.000000 25.788390
RightHandThumb1 -24.326973 -0.000000 -32.862282
LeftUpLeg -30.333536 1.895877 -3.357555
LeftLeg -6.837426 -0.000000 0.000000
LeftFoot -18.298403 30.167287 -7.215498
LeftToeBase 20.833126 -0.000000 -0.000000
RightUpLeg 7.351573 0.961629 -3.797095
RightLeg 130.346901 -0.000000 -0.000000
RightFoot 9.997454 -39.879573 -3.695745
RightToeBase 22.384765 -0.000000 -0.000000
676
root 17.552281 35.956173 -19.171218 160.991936 -80.485095 -123.636401
Spine -33.163245 -10.030123 0.676777
Head -1.128171 9.480257 13.906312
LeftShoulder -14.092856 -22.896586 3.136185
LeftArm -9.862703 8.980908 -57.659576
LeftForeArm 2.848993 -0.000000 4.300445
LeftHand -1.204366 -0.000000 -4.292679
LeftHandThumb1 -26.253704 0.000000 33.147579
RightShoulder -21.562330 -24.746871 4.051956
RightArm -12.394036 6.884211 67.066306
RightForeArm -41.142743 -0.000000 9.011431
RightHand -4.784513 -0.000000 25.848684
RightHandThumb1 -24.326973 -0.000000 -32.862282
LeftUpLeg -30.578035 2.024622 -3.356299
LeftLeg -6.882949 -0.000000 0.000000
LeftFoot -18.314574 30.222070 -7.307470
LeftToeBase 20.868633 -0.000000 -0.000000
RightUpLeg 7.331044 1.014336 -3.827428
RightLeg 130.324147 -0.000000 -0.000000
RightFoot 10.178157 -39.767716 -3.968553
RightToeBase 22.419371 -0.000000 -0.000000
677
root 17.569641 35.964063 -19.175746 162.044646 -80.249127 -124.460821
Spine -33.167750 -10.010066 0.650758
Head -1.244226 9.706364 14.026350
LeftShoulder -14.040753 -22.964550 3.161453
LeftArm -9.830875 8.978876 -57.605982
LeftForeArm 3.042653 0.000000 4.243729
LeftHand -1.134789 -0.000000 -4.333899
LeftHandThumb1 -26.253704 0.000000 33.147579
RightShoulder -21.575425 -24.692770 4.053206
RightArm -12.403236 6.921457 66.990876
RightForeArm -41.454328 -0.000000 8.988517
RightHand -4.644450 -0.000000 25.810002
RightHandThumb1 -24.326973 -0.000000 -32.862282
LeftUpLeg -30.789449 2.208451 -3.360253
LeftLeg -6.965408 -0.000000 0.000000
LeftFoot -18.261415 30.270020 -7.333296
LeftToeBase 20.814661 -0.000000 -0.000000
RightUpLeg 7.297514 1.071326 -3.895200
RightLeg 130.275405 -0.000000 -0.000000
RightFoot 10.203781 -40.049510 -3.828258
RightToeBase 22.274396 -0.000000 -0.000000
678
root 17.591606 35.973282 -19.177966 163.068547 -80.018714 -125.237527
Spine -33.166383 -10.002951 0.628837
Head -1.408648 9.929304 14.122311
LeftShoulder -13.978412 -22.972316 3.159077
LeftArm -9.749957 8.961866 -57.527135
LeftForeArm 2.966873 -0.000000 4.245065
LeftHand -1.112605 -0.000000 -4.322195
LeftHandThumb1 -26.253704 0.000000 33.147579
RightShoulder -21.602112 -24.663010 4.059762
RightArm -12.361841 6.932696 66.927330
RightForeArm -41.576518 0.000000 8.995683
RightHand -4.606685 -0.000000 25.783154
RightHandThumb1 -24.326973 -0.000000 -32.862282
LeftUpLeg -31.046433 2.425516 -3.392748
LeftLeg -7.007545 -0.000000 0.000000
LeftFoot -18.231973 30.264993 -7.409357
LeftToeBase 20.639478 -0.000000 -0.000000
RightUpLeg 7.277732 1.163946 -3.958202
RightLeg 130.249067 -0.000000 -0.000000
RightFoot 10.493142 -39.999174 -4.287778
RightToeBase 22.302007 -0.000000 -0.000000
679
root 17.615697 35.984689 -19.183032 163.933076 -79.757562 -125.844970
Spine -33.177583 -10.005528 0.651841
Head -1.533859 10.163748 14.223066
LeftShoulder -13.987442 -22.949343 3.151375
LeftArm -9.637338 9.336378 -57.481568
LeftForeArm 2.728012 -0.000000 4.311102
LeftHand -1.110162 -0.000000 -4.312774
LeftHandThumb1 -26.253704 0.000000 33.147579
RightShoulder -21.578578 -24.611024 4.060261
RightArm -12.334499 6.910523 66.836463
RightForeArm -41.669166 0.000000 8.963558
RightHand -4.539651 -0.000000 25.845118
RightHandThumb1 -24.326973 -0.000000 -32.862282
LeftUpLeg -31.285420 2.628599 -3.364305
LeftLeg -7.107669 -0.000000 0.000000
LeftFoot -18.176528 30.277183 -7.495636
LeftToeBase 20.421343 -0.000000 -0.000000
RightUpLeg 7.265442 1.346510 -3.971394
RightLeg 130.299913 -0.000000 -0.000000
RightFoot 10.143322 -39.878940 -3.920411
RightToeBase 22.087783 -0.000000 -0.000000
